<?xml version="1.0" encoding="UTF-8"?>
<svg id="Layer_1" xmlns="http://www.w3.org/2000/svg" version="1.1" viewBox="0 0 1190.6 841.9">
  <!-- Generator: Adobe Illustrator 29.0.0, SVG Export Plug-In . SVG Version: 2.1.0 Build 186)  -->
  <path d="M247.9,380.8l92.6,136.2h-58.4l-29-42.8c-10.2-14.9-22-32.9-35.3-53.9-13.4,21.1-25.2,39.1-35.3,53.9l-29.4,42.8h-56.9l93.4-135.1-87.8-129.8h58l26.4,39.4c8.9,13.2,19.8,30.1,32.7,51,18.1-28,29.1-45,33.1-51l26.8-39.4h56.6l-87.4,128.7Z"/>
  <path d="M425.7,522.9c-35.7,0-63.5-8-83.3-24-19.8-16-29.9-39.1-30.1-69.4h49.5c.2,19.6,6.1,33.3,17.7,41.1,11.5,7.8,27.5,11.7,47.8,11.7s30.6-3.3,39.8-9.9c9.2-6.6,13.8-16.1,13.8-28.5s-4-18.4-11.9-23.8c-7.9-5.5-22.1-10.3-42.4-14.5l-22.3-4.5c-56.8-10.7-85.2-37.5-85.2-80.4s8.6-40.7,25.9-54.3c17.2-13.6,41.4-20.5,72.4-20.5s62.4,7.6,80,22.7c17.6,15.1,26.9,35.8,27.9,62.1h-48.7c-1-14.9-6-26-14.9-33.3-8.9-7.3-23.4-11-43.5-11s-27.5,2.9-35.5,8.7c-8.1,5.8-12.1,13.8-12.1,24s3.7,18.9,11.2,24.6c7.4,5.7,21,10.5,40.6,14.5l23.1,4.5c31,6.2,53.4,15.5,67.2,27.9,13.8,12.4,20.6,29.3,20.6,50.6s-9.5,46.1-28.5,60.3c-19,14.1-45.2,21.2-78.7,21.2Z"/>
  <path d="M666.1,325h49.1l-74,207.6c-7.7,21.3-17.6,36.3-29.8,44.8-12.2,8.6-29.8,12.8-52.8,12.8s-14.5-.4-20.5-1.1v-36.8h17.9c10.7,0,18.6-2.9,23.8-8.7,5.2-5.8,7.8-13.2,7.8-22.1s-3-21.8-8.9-38.7l-55.8-157.8h50.6l15.6,48c11.4,36.2,21.6,71.9,30.5,107.2,8.2-30.5,18.5-66.1,30.9-106.8l15.6-48.4Z"/>
  <path d="M823.1,320.5c20.6,0,37,6,49.1,17.9,12.2,11.9,18.2,29,18.2,51.3v127.2h-46.9v-119.4c0-24.3-12-36.5-36.1-36.5s-21.4,4.1-29.9,12.3c-8.6,8.2-12.8,20.2-12.8,36.1v107.5h-46.9v-192h45.4v27.5c14.4-21.3,34.4-32,59.9-32Z"/>
  <path d="M992.7,521.4c-28.5,0-51.5-9.1-68.8-27.3-17.4-18.2-26-42.6-26-73.1s8.6-54.9,25.9-73.1c17.2-18.2,40.2-27.3,69-27.3s45.5,6.6,61.4,19.9c15.9,13.3,25.2,31.2,27.9,53.8h-46.9c-2.2-11.4-7.1-20-14.7-25.9-7.6-5.8-16.8-8.7-27.7-8.7s-25.8,5.2-34.2,15.4c-8.4,10.3-12.6,25.6-12.6,45.9s4.3,35.7,12.8,45.9c8.6,10.3,19.9,15.4,34,15.4s20.7-3.1,28.6-9.3c7.9-6.2,12.8-15.4,14.5-27.5h46.9c-2.5,23.3-11.9,41.8-28.3,55.4-16.4,13.6-37,20.5-61.8,20.5Z"/>
</svg>